# AST/ASF file generated using VICON BodyLanguage
# -----------------------------------------------
:version 1.10
:name VICON
:units
  mass 1.0
  length 0.45
  angle deg
:documentation
   .ast/.asf automatically generated from VICON data using
   VICON BodyBuilder and BodyLanguage model FoxedUp or BRILLIANT.MOD
:root
   order TX TY TZ RX RY RZ
   axis XYZ
   position 0 0 0  
   orientation 0 0 0 
:bonedata
  begin
     id 1 
     name lhipjoint
     direction 0.661853 -0.702389 0.261917 
     length 2.64193 
     axis 0 0 0  XYZ
  end
  begin
     id 2 
     name lfemur
     direction 0.34202 -0.939693 0  
     length 7.01722  
     axis 0 0 20  XYZ
    dof rx ry rz
    limits (-160.0 20.0)
           (-70.0 70.0)
           (-60.0 70.0)
  end
  begin
     id 3 
     name ltibia
     direction 0.34202 -0.939693 0   
     length 8.25008   
     axis 0 0 20   XYZ
    dof rx
    limits (-10.0 170.0)
  end
  begin
     id 4 
     name lfoot
     direction 0.0709916 -0.195048 0.978221   
     length 2.31941   
     axis -90 7.62852e-016 20   XYZ
    dof rx rz
    limits (-45.0 90.0)
           (-70.0 20.0)
  end
  begin
     id 5 
     name ltoes
     direction 1.53586e-011 -4.22017e-011 1   
     length 1.16486   
     axis -90 7.62852e-016 20   XYZ
    dof rx
    limits (-90.0 20.0)
  end
  begin
     id 6 
     name rhipjoint
     direction -0.638185 -0.721362 0.268992   
     length 2.57244  
     axis 0 0 0  XYZ 
  end
  begin
     id 7 
     name rfemur
     direction -0.34202 -0.939693 0   
     length 7.07017   
     axis 0 0 -20   XYZ
    dof rx ry rz
    limits (-160.0 20.0)
           (-70.0 70.0)
           (-70.0 60.0)
  end
  begin
     id 8 
     name rtibia
     direction -0.34202 -0.939693 0   
     length 8.20386   
     axis 0 0 -20   XYZ
    dof rx
    limits (-10.0 170.0)
 end
 begin
     id 9 
     name rfoot
     direction -0.0822429 -0.225961 0.970658   
     length 2.32215  
     axis -90 -7.62852e-016 -20   XYZ
    dof rx rz
    limits (-45.0 90.0)
           (-20.0 70.0)
  end
  begin
     id 10 
     name rtoes
     direction -1.53597e-011 -4.21689e-011 1   
     length 1.16333   
     axis -90 -7.62852e-016 -20   XYZ
    dof rx
    limits (-90.0 20.0)
  end
  begin
     id 11 
     name lowerback
     direction -0.0131557 0.998589 -0.0514484   
     length 2.14993   
     axis 0 0 0   XYZ
    dof rx ry rz
    limits (-20.0 45.0)
           (-30.0 30.0)
           (-30.0 30.0)
  end
  begin
     id 12 
     name upperback
     direction -0.000776481 0.999993 0.00352685   
     length 2.15301   
     axis 0 0 0   XYZ
    dof rx ry rz
    limits (-20.0 45.0)
           (-30.0 30.0)
           (-30.0 30.0)
  end
  begin
     id 13 
     name thorax
     direction 0.00438186 0.999609 0.0276143   
     length 2.15424   
     axis 0 0 0   XYZ
    dof rx ry rz
    limits (-20.0 45.0)
           (-30.0 30.0)
           (-30.0 30.0)
  end
  begin
     id 14 
     name lowerneck
     direction -0.0488006 0.998094 0.0377807   
     length 1.90481   
     axis 0 0 0   XYZ
    dof rx ry rz
    limits (-20.0 45.0)
           (-30.0 30.0)
           (-30.0 30.0)
  end
  begin
     id 15 
     name upperneck
     direction 0.0443769 0.990702 -0.12861   
     length 1.91305   
     axis 0 0 0   XYZ
    dof rx ry rz
    limits (-20.0 45.0)
           (-30.0 30.0)
           (-30.0 30.0)
  end
  begin
     id 16
     name head
     direction 0.0165599 0.998647 -0.0492982  
     length 1.92369  
     axis 0 0 0   XYZ
    dof rx ry rz
    limits (-20.0 45.0)
           (-30.0 30.0)
           (-30.0 30.0)
  end
  begin
     id 17 
     name lclavicle
     direction 0.911936 0.410197 -0.0105506  
     length 3.52622  
     axis 0 0 0   XYZ
    dof ry rz
    limits (-20.0 10.0)
           (0.0 20.0)
  end
  begin
     id 18 
     name lhumerus
     direction 1 -4.48974e-011 -2.48591e-028   
     length 5.47651   
     axis 180 -30 -90   XYZ
    dof rx ry rz
    limits (-60.0 90.0)
           (-90.0 90.0)
           (-90.0 90.0)
  end
  begin
     id 19
     name lradius
     direction 1 -4.48938e-011 -4.40099e-027   
     length 3.09058   
     axis 180 -30 -90   XYZ
    dof rx
    limits (-10.0 170.0)
  end
  begin
     id 20
     name lwrist
     direction 1 -4.49042e-011 -2.99852e-027   
     length 1.54529   
     axis 1.95339e-015 90 90   XYZ
    dof ry
    limits (-180.0 0.0)
 end
  begin
     id 21 
     name lhand
     direction 1 -4.48815e-011 -5.98193e-027   
     length 0.771611   
     axis 3.82337e-015 90 90   XYZ
    dof rx rz
    limits (-90.0 90.0)
           (-45.0 45.0)
  end
  begin
     id 22 
     name lfingers
     direction 1 -4.49034e-011 -1.1993e-026   
     length 0.622093   
     axis 7.64668e-015 90 90   XYZ
    dof rx
    limits (0.0 90.0)
  end
  begin
     id 23
     name lthumb
     direction 0.707107 -6.34867e-011 0.707107   
     length 0.893204   
     axis -90 45 -1.62303e-014   XYZ
    dof rx rz
    limits (-45.0 45.0)
           (-45.0 45.0)
  end
  begin
     id 24 
     name rclavicle
     direction -0.93442 0.355634 -0.0195692   
     length 3.62463  
     axis 0 0 0   XYZ 
    dof ry rz
    limits (-10.0 20.0)
           (-20.0 0.0)
  end
  begin
     id 25 
     name rhumerus
     direction -1 -4.48957e-011 -1.19147e-027  
     length 5.14182   
     axis 180 30 90   XYZ
    dof rx ry rz
    limits (-90.0 60.0)
           (-90.0 90.0)
           (-90.0 90.0)
  end
  begin
     id 26 
     name rradius
     direction -1 -4.48952e-011 -3.81062e-027   
     length 3.35565   
     axis 180 30 90   XYZ
    dof rx
    limits (-10.0 170.0)
  end
  begin
     id 27 
     name rwrist
     direction -1 -4.48973e-011 -2.99621e-027   
     length 1.67782   
     axis 1.95339e-015 -90 -90   XYZ
    dof ry
    limits (-180.0 0.0)
  end
  begin
     id 28
     name rhand
     direction -1 -4.48895e-011 -5.98727e-027   
     length 0.801042   
     axis 3.82337e-015 -90 -90   XYZ
    dof rx rz
    limits (-90.0 90.0)
           (-45.0 45.0)
  end
  begin
     id 29
     name rfingers
     direction -1 -4.49065e-011 -1.19972e-026   
     length 0.645821   
     axis 7.64668e-015 -90 -90   XYZ
    dof rx
    limits (0.0 90.0)
  end
  begin
     id 30
     name rthumb
     direction -0.707107 -6.34957e-011 0.707107   
     length 0.927273   
     axis -90 -45 1.62303e-014   XYZ
    dof rx rz
    limits (-45.0 45.0)
           (-45.0 45.0)
  end
:hierarchy
  begin
    root lhipjoint rhipjoint lowerback
    lhipjoint lfemur
    lfemur ltibia
    ltibia lfoot
    lfoot ltoes
    rhipjoint rfemur
    rfemur rtibia
    rtibia rfoot
    rfoot rtoes
    lowerback upperback
    upperback thorax
    thorax lowerneck lclavicle rclavicle
    lowerneck upperneck
    upperneck head
    lclavicle lhumerus
    lhumerus lradius
    lradius lwrist
    lwrist lhand lthumb
    lhand lfingers
    rclavicle rhumerus
    rhumerus rradius
    rradius rwrist
    rwrist rhand rthumb
    rhand rfingers
  end

#!OML:ASF E:\Style4\Style4.ASF
:FULLY-SPECIFIED
:DEGREES
466
root 1.34757 17.4035 -2.91761 10.1339 7.37055 7.88702
lowerback 20.6297 4.28464 6.836
upperback 12.5721 6.72756 3.5079
thorax 2.59823 3.66558 -1.24236
lowerneck 4.7977 -14.7077 -6.13971
upperneck 17.7634 -21.1226 11.9377
head 6.60707 -9.81939 3.60637
rclavicle 4.6118e-014 -4.13472e-014
rhumerus 66.5828 6.20835 -445.376
rradius 31.6579
rwrist 296.126
rhand -18.2533 18.1279
rfingers 7.12502
rthumb 8.02587 -11.6997
lclavicle 4.6118e-014 -4.13472e-014
lhumerus 81.9036 33.4575 34.3721
lradius 109.92
lwrist 71.8922
lhand 26.0025 35.2139
lfingers 7.12502
lthumb 50.08 56.3945
rfemur -36.3939 -12.2585 6.8895
rtibia 43.8796
rfoot -13.1153 -17.5622
rtoes -11.6261
lfemur -33.6311 -2.69426 -32.4011
ltibia 34.5437
lfoot -10.0946 5.1831
ltoes -7.70191
467
root 1.3711 17.3948 -2.92853 10.048 6.815 7.82284
lowerback 20.4808 4.18319 6.68207
upperback 12.7753 6.54316 3.46021
thorax 2.8723 3.5769 -1.15167
lowerneck 4.96292 -14.7125 -6.07926
upperneck 17.5021 -21.0946 11.881
head 6.47965 -9.82888 3.60294
rclavicle -1.38354e-013 6.04305e-014
rhumerus 66.7861 5.48421 -446.89
rradius 29.9562
rwrist 297.634
rhand -19.0265 18.2748
rfingers 7.12502
rthumb 7.27956 -11.58
lclavicle -1.38354e-013 6.04305e-014
lhumerus 81.7847 33.6689 34.2637
lradius 109.964
lwrist 71.7925
lhand 26.0881 34.769
lfingers 7.12502
lthumb 50.1583 55.9082
rfemur -36.5571 -11.7158 6.81552
rtibia 43.9021
rfoot -12.9763 -17.515
rtoes -11.6701
lfemur -33.8023 -2.44857 -32.4401
ltibia 34.8577
lfoot -10.3717 5.51983
ltoes -7.71953
468
root 1.39745 17.3873 -2.9362 9.98711 6.25559 7.72243
lowerback 20.2935 4.16922 6.06138
upperback 12.9398 6.40066 3.80307
thorax 3.01567 3.45804 -0.405839
lowerneck 5.27117 -14.6683 -6.49328
upperneck 17.2079 -20.9973 11.7559
head 6.35376 -9.8416 3.659
rclavicle -4.77083e-015 3.18055e-015
rhumerus 66.8632 5.13265 -447.587
rradius 28.3276
rwrist 298.861
rhand -19.6498 18.5895
rfingers 7.12502
rthumb 6.67794 -11.2852
lclavicle -4.77083e-015 3.18055e-015
lhumerus 81.231 33.8929 34.3642
lradius 109.95
lwrist 71.6
lhand 26.1456 34.572
lfingers 7.12502
lthumb 50.2108 55.6833
rfemur -36.7349 -11.2396 6.78163
rtibia 43.9127
rfoot -12.8382 -17.3534
rtoes -11.685
lfemur -33.9916 -2.21678 -32.4507
ltibia 35.1659
lfoot -10.5948 5.88769
ltoes -8.11002
469
root 1.42651 17.3811 -2.94055 9.93204 5.65629 7.61813
lowerback 20.2896 4.20525 5.47044
upperback 12.998 6.34742 4.13476
thorax 2.9641 3.37839 0.275063
lowerneck 5.30582 -14.7014 -6.77294
upperneck 17.2697 -21.0016 11.3785
head 6.35734 -9.87829 3.58214
rclavicle 2.54444e-014 -6.99722e-014
rhumerus 66.798 4.60292 -448.422
rradius 26.6123
rwrist 300.603
rhand -20.05 18.8488
rfingers 7.12502
rthumb 6.29159 -11.0378
lclavicle 2.54444e-014 -6.99722e-014
lhumerus 80.8049 33.9024 34.6401
lradius 109.998
lwrist 71.3496
lhand 26.1679 34.5894
lfingers 7.12502
lthumb 50.2312 55.6899
rfemur -36.9077 -10.8048 6.75404
rtibia 43.9081
rfoot -12.6583 -17.1674
rtoes -12.0438
lfemur -34.1675 -1.95839 -32.4659
ltibia 35.4937
lfoot -10.8556 6.22216
ltoes -8.52482
470
root 1.45304 17.3727 -2.94674 9.86927 5.04113 7.53798
lowerback 20.4003 4.20072 5.25295
upperback 13.0341 6.30665 4.14973
thorax 2.91893 3.34108 0.408436
lowerneck 5.34913 -14.767 -6.71106
upperneck 17.1688 -21.0548 11.1898
head 6.29659 -9.91824 3.51834
rclavicle -2.8625e-014 -2.54444e-014
rhumerus 66.7763 3.64595 -450.14
rradius 24.7733
rwrist 303.33
rhand -20.4582 18.9068
rfingers 7.12502
rthumb 5.8975 -10.9911
lclavicle -2.8625e-014 -2.54444e-014
lhumerus 80.8135 33.8318 34.903
lradius 110.088
lwrist 71.1765
lhand 26.4172 34.7643
lfingers 7.12502
lthumb 50.459 55.7426
rfemur -37.0935 -10.3267 6.70617
rtibia 43.8991
rfoot -12.4284 -17.0468
rtoes -12.4729
lfemur -34.3557 -1.71445 -32.4873
ltibia 35.8314
lfoot -11.1263 6.55584
ltoes -8.65256
471
root 1.4753 17.3626 -2.9576 9.84162 4.40309 7.44401
lowerback 20.4279 4.14938 5.18377
upperback 13.1205 6.21888 4.02942
thorax 3.00503 3.29805 0.337662
lowerneck 5.45137 -14.7936 -6.76846
upperneck 16.9428 -21.1004 11.3521
head 6.23564 -9.95284 3.58329
rclavicle 1.59028e-015 1.59028e-014
rhumerus 66.9308 2.51371 -452.689
rradius 22.8247
rwrist 306.941
rhand -20.9414 18.9402
rfingers 7.12502
rthumb 5.43095 -10.9702
lclavicle 1.59028e-015 1.59028e-014
lhumerus 80.9393 33.8956 35.0322
lradius 110.18
lwrist 71.0079
lhand 26.6854 34.9099
lfingers 7.12502
lthumb 50.7039 55.7551
rfemur -37.3487 -9.79524 6.68726
rtibia 43.893
rfoot -12.2618 -16.942
rtoes -12.5571
lfemur -34.6156 -1.43193 -32.4814
ltibia 36.1715
lfoot -11.3772 6.87445
ltoes -8.51622
472
root 1.49434 17.3543 -2.97224 9.85702 3.73356 7.35861
lowerback 20.4404 4.08567 4.88281
upperback 13.1878 6.07967 4.00459
thorax 3.03635 3.2093 0.501141
lowerneck 5.323 -14.7617 -7.00596
upperneck 17.1483 -21.0819 11.2945
head 6.3396 -9.94933 3.58205
rclavicle 7.4743e-014 3.81667e-014
rhumerus 67.0918 1.55205 -455.464
rradius 20.8148
rwrist 310.871
rhand -21.2869 19.2691
rfingers 7.12502
rthumb 5.09732 -10.6496
lclavicle 7.4743e-014 3.81667e-014
lhumerus 80.6459 34.0374 34.9794
lradius 110.348
lwrist 70.816
lhand 26.689 35.0008
lfingers 7.12502
lthumb 50.7071 55.8441
rfemur -37.6764 -9.21012 6.66847
rtibia 43.8927
rfoot -12.1392 -16.8484
rtoes -12.5443
lfemur -34.9257 -1.13361 -32.4724
ltibia 36.5133
lfoot -11.6379 7.26617
ltoes -9.02063
473
root 1.51388 17.3479 -2.9867 9.81287 3.09343 7.21952
lowerback 20.5739 4.04212 4.69165
upperback 13.2515 5.99094 3.98024
thorax 3.01926 3.15142 0.58794
lowerneck 5.17085 -14.7816 -7.00177
upperneck 17.3992 -21.1007 11.0571
head 6.42127 -9.95539 3.48985
rclavicle -5.56597e-014 -1.59028e-015
rhumerus 67.3749 0.291476 -458.681
rradius 18.7029
rwrist 315.223
rhand -21.4639 19.5539
rfingers 7.12502
rthumb 4.92644 -10.3689
lclavicle -5.56597e-014 -1.59028e-015
lhumerus 80.4128 34.0592 35.0191
lradius 110.567
lwrist 70.694
lhand 26.4664 34.8996
lfingers 7.12502
lthumb 50.504 55.8537
rfemur -37.9312 -8.68204 6.72631
rtibia 43.8846
rfoot -11.9074 -16.7956
rtoes -12.8536
lfemur -35.176 -0.878967 -32.3852
ltibia 36.8573
lfoot -11.8553 7.62809
ltoes -9.4871
474
root 1.53421 17.3411 -2.99894 9.73694 2.44059 7.04214
lowerback 20.7652 4.04805 4.65799
upperback 13.3221 5.99242 3.91684
thorax 3.00714 3.15006 0.529317
lowerneck 5.21245 -14.8935 -6.78438
upperneck 17.3778 -21.2152 10.8566
head 6.37467 -10.0118 3.39554
rclavicle -3.02153e-014 1.90833e-014
rhumerus 67.8151 -1.37074 -462.322
rradius 16.6077
rwrist 320.221
rhand -21.6337 19.7697
rfingers 7.12502
rthumb 4.76243 -10.1568
lclavicle -3.02153e-014 1.90833e-014
lhumerus 80.4243 33.943 35.2624
lradius 110.748
lwrist 70.5496
lhand 26.4442 34.759
lfingers 7.12502
lthumb 50.4837 55.724
rfemur -38.1214 -8.16439 6.81653
rtibia 43.8441
rfoot -11.752 -16.6587
rtoes -12.905
lfemur -35.3866 -0.609944 -32.2707
ltibia 37.193
lfoot -12.0006 8.02276
ltoes -9.98849
475
root 1.55488 17.3336 -3.0091 9.70446 1.73418 6.85713
lowerback 20.8547 4.08062 4.58911
upperback 13.4132 6.01469 3.87522
thorax 3.06246 3.15694 0.51877
lowerneck 5.45892 -14.982 -6.61276
upperneck 17.0943 -21.288 10.7501
head 6.22102 -10.0655 3.36336
rclavicle 3.18055e-014 -4.77083e-015
rhumerus 68.4075 -3.19627 -466.498
rradius 14.5804
rwrist 325.838
rhand -21.8295 20.0409
rfingers 7.12502
rthumb 4.57337 -9.88971
lclavicle 3.18055e-014 -4.77083e-015
lhumerus 80.5232 33.8389 35.534
lradius 110.799
lwrist 70.2278
lhand 26.7468 34.5803
lfingers 7.12502
lthumb 50.7599 55.3947
rfemur -38.3541 -7.62994 6.91174
rtibia 43.7794
rfoot -11.641 -16.4509
rtoes -12.7615
lfemur -35.6321 -0.289632 -32.1573
ltibia 37.5175
lfoot -12.167 8.31277
ltoes -9.50171
476
root 1.57724 17.3279 -3.01696 9.64241 0.970349 6.65036
lowerback 20.955 4.09274 4.61199
upperback 13.5345 6.02296 3.76806
thorax 3.16483 3.16633 0.392847
lowerneck 5.40315 -15.106 -6.38769
upperneck 17.1565 -21.4161 10.4854
head 6.21007 -10.1242 3.23879
rclavicle -1.28812e-013 -1.74931e-014
rhumerus 69.2535 -5.20353 -471.582
rradius 12.6352
rwrist 331.994
rhand -22.1025 20.1229
rfingers 7.12502
rthumb 4.3098 -9.81324
lclavicle -1.28812e-013 -1.74931e-014
lhumerus 80.7223 33.7495 35.7114
lradius 110.769
lwrist 69.9722
lhand 26.915 34.486
lfingers 7.12502
lthumb 50.9133 55.2156
rfemur -38.5572 -7.09918 7.03473
rtibia 43.6941
rfoot -11.5286 -16.1751
rtoes -12.725
lfemur -35.8291 0.0345464 -32.0076
ltibia 37.8243
lfoot -12.4235 8.64292
ltoes -8.89602
477
root 1.60054 17.3224 -3.02495 9.5567 0.220182 6.52293
lowerback 21.0972 4.08413 4.58854
upperback 13.6656 5.99937 3.62901
thorax 3.25508 3.1586 0.261131
lowerneck 5.15031 -15.2366 -6.26
upperneck 17.4772 -21.5829 10.2353
head 6.32946 -10.1878 3.10359
rclavicle 1.74931e-014 5.24792e-014
rhumerus 70.3012 -7.38458 -477.523
rradius 10.8567
rwrist 339.097
rhand -22.4765 20.2216
rfingers 7.12502
rthumb 3.94865 -9.72153
lclavicle 1.74931e-014 5.24792e-014
lhumerus 80.8583 33.679 35.8035
lradius 110.757
lwrist 69.8198
lhand 26.7751 34.4961
lfingers 7.12502
lthumb 50.7857 55.2963
rfemur -38.7355 -6.67113 7.09067
rtibia 43.6174
rfoot -11.3137 -15.915
rtoes -12.9889
lfemur -35.9817 0.364241 -31.9616
ltibia 38.1174
lfoot -12.6772 9.04004
ltoes -9.21579
